/* XPM */
static char *questbeat[] = {
/* columns rows colors chars-per-pixel */
"40 40 245 2 ",
"   c #0A0403",
".  c #0C0A06",
"X  c #02020D",
"o  c #040B09",
"O  c #0D0B0A",
"+  c #160704",
"@  c #1C0304",
"#  c #120E0D",
"$  c #061808",
"%  c #171508",
"&  c #15100E",
"*  c #070A16",
"=  c #110C12",
"-  c #081415",
";  c #151212",
":  c #1A1514",
">  c #1C1916",
",  c #17161B",
"<  c #1D1B1A",
"1  c #260606",
"2  c #380506",
"3  c #261207",
"4  c #38150F",
"5  c #281A16",
"6  c #231E1C",
"7  c #05260C",
"8  c #142D10",
"9  c #23221D",
"0  c #2D231B",
"q  c #352519",
"w  c #2D3012",
"e  c #050A28",
"r  c #0F1729",
"t  c #1A1B22",
"y  c #161929",
"u  c #091433",
"i  c #141B35",
"p  c #241F22",
"a  c #221E31",
"s  c #13202D",
"d  c #1B2234",
"f  c #1C243B",
"g  c #18233D",
"h  c #242322",
"j  c #2B2525",
"k  c #27262B",
"l  c #2C292A",
"z  c #342A23",
"x  c #332C2B",
"c  c #363428",
"v  c #3C332D",
"b  c #272834",
"n  c #23263B",
"m  c #232A3D",
"M  c #2E333A",
"N  c #343133",
"B  c #3B3433",
"V  c #3D3539",
"C  c #430000",
"Z  c #440C09",
"A  c #560607",
"S  c #47150E",
"D  c #4B1814",
"F  c #571713",
"G  c #690606",
"H  c #770609",
"J  c #691815",
"K  c #771A18",
"L  c #4D301B",
"P  c #792D00",
"I  c #47372A",
"U  c #50302E",
"Y  c #59382A",
"T  c #443B34",
"R  c #463B36",
"E  c #61392D",
"W  c #074911",
"Q  c #006104",
"!  c #0B5627",
"~  c #305431",
"^  c #006429",
"/  c #147038",
"(  c #316432",
")  c #484329",
"_  c #54452B",
"`  c #4A4432",
"'  c #4B433D",
"]  c #564837",
"[  c #445931",
"{  c #595235",
"}  c #684E33",
"|  c #73493A",
" . c #645536",
".. c #141E40",
"X. c #021951",
"o. c #1D2943",
"O. c #1B2748",
"+. c #09304E",
"@. c #1B2C58",
"#. c #252B45",
"$. c #302E40",
"%. c #2A3345",
"&. c #2B324C",
"*. c #393947",
"=. c #32354B",
"-. c #232A56",
";. c #283558",
":. c #3D3C52",
">. c #343959",
",. c #283B68",
"<. c #333B68",
"1. c #423D46",
"2. c #663D4D",
"3. c #38484F",
"4. c #377447",
"5. c #39426A",
"6. c #384477",
"7. c #484348",
"8. c #564B49",
"9. c #5A5148",
"0. c #5C524D",
"q. c #474757",
"w. c #534D53",
"e. c #534D5C",
"r. c #5A5557",
"t. c #654F46",
"y. c #724541",
"u. c #6B5948",
"i. c #665958",
"p. c #735D5A",
"a. c #506E4D",
"s. c #6D6647",
"d. c #75684A",
"f. c #67635B",
"g. c #6D645D",
"h. c #766756",
"j. c #7B7156",
"k. c #464965",
"l. c #524D67",
"z. c #595564",
"x. c #495277",
"c. c #495474",
"v. c #595771",
"b. c #655E63",
"n. c #6E5E6A",
"m. c #6B6466",
"M. c #6E6867",
"N. c #776963",
"B. c #7D7469",
"V. c #727170",
"C. c #840303",
"Z. c #940402",
"A. c #8D1618",
"S. c #A30000",
"D. c #AD0502",
"F. c #B70000",
"G. c #AC1A1A",
"H. c #A9251E",
"J. c #9D1A20",
"K. c #862B2B",
"L. c #923033",
"P. c #B62B28",
"I. c #AD312E",
"U. c #A83733",
"Y. c #944934",
"T. c #B13F41",
"R. c #905654",
"E. c #A94F4C",
"W. c #81725A",
"Q. c #866867",
"!. c #837869",
"~. c #836E72",
"^. c #817B76",
"/. c #997472",
"(. c #BD7972",
"). c #C77671",
"_. c #5F8863",
"`. c #89805F",
"'. c #8A8377",
"]. c #928570",
"[. c #958978",
"{. c #333F87",
"}. c #374483",
"|. c #39568F",
" X c #3F639D",
".X c #3D68A0",
"XX c #4B538B",
"oX c #485488",
"OX c #435692",
"+X c #56689A",
"@X c #A27D82",
"#X c #788493",
"$X c #8E8983",
"%X c #948D86",
"&X c #999289",
"*X c #978E95",
"=X c #9B9492",
"-X c #9F9896",
";X c #989F98",
":X c #A5878C",
">X c #A39889",
",X c #B9918D",
"<X c #A69B95",
"1X c #ACA38B",
"2X c #AAA194",
"3X c #ABA39B",
"4X c #B1A696",
"5X c #B5AC9D",
"6X c #A8A3A1",
"7X c #B4ACA4",
"8X c #B7ADA6",
"9X c #BCB4A4",
"0X c #BAB6AB",
"qX c #B1ADB3",
"wX c #BEB7B4",
"eX c #CE918B",
"rX c #C8A39C",
"tX c #C9B3A8",
"yX c #C4BBAC",
"uX c #C6BBB4",
"iX c #C5BEB4",
"pX c #C9C0AF",
"aX c #C7C1B5",
"sX c #CBC2B5",
"dX c #CDC6BC",
"fX c #D2CABD",
"gX c #E8C3BC",
"hX c #D5CDC2",
"jX c #D8CDC4",
"kX c #D5D1C2",
"lX c #DBD3C5",
"zX c #DDD4CB",
"xX c #DED9CD",
"cX c #DCD7D5",
"vX c #E2D8CB",
"bX c #E3DCD3",
"nX c #E8DED6",
"mX c #E9E3D7",
"MX c #ECE5DC",
"NX c #F2E7DC",
"BX c #EBE7E7",
"VX c #F2EBE6",
"CX c #FBF4EC",
"ZX c #F9F5F3",
"AX c #FDF9F5",
/* pixels */
"* * ; h - X X x I q U I t * y t X , y * s b y r &.=.X #X+Xo %.d i #.u i n #.n ..",
"* t e X * y * j z 5 x x : t - l y y r f f i r O.;.=.5.5.9.7.@.;.-.-.&.#.i u n #.",
"t X e.qXV.X n l L q R T : y i n O.i f O.@.,.,.;.#.@.#.q I N @.6.<.-.-...#.n ..;.",
"b X e.cX;XX.>.l 5 T t.8.5 , n u f #.@.<.}. X X,.6.;.+ c q + <.|.}.<.<.{.<.;.-.<.",
"i i ..k.x.,.&.p 3 I 8.r.q X M =.q.x.<.<.6.|.|.|.6.y 5 T 5 % x.OXXXoXXX+XoX{.{.}.",
"n n #.O...>.$.5 3 z 8.u.' X :.x.5.k.k.k.x.x.x.oX&.  x T q : k.6.x.oXx.6.oXOXOX X",
"b b a b = +Xz.+ j I u.i.' 9 O :.*.7.e.e.e.z.v.l.X 9 R v @ p l.l.x.oXl.<.<.x.oXOX",
"$.a n =.*.#.M j 5 I i.g.8.0 X 1.r.i.b.m.m.m.m.N . c ' 5 X b 8.1.2.l.1.k.k.<.x.oX",
"&.*.=.k.:.=.*.j q U t.t.R 0   l Q.@X:X:X:X,XB.X x T T l & . X X & j 9 N :.>.<.5.",
"=.*.>.1.7.3.N T N.T X X # # : o U N./.:X:X~.N X j z R z   # # + . X X X . l k k ",
"k.k.l.l.1.e.e.T t.I : : O o ; j s X X 0 k X X j j > h & + & # # ; & # ; 9 9 9 : ",
"v.v.v.b.r.i.R.0 5 0   # O ; 9 j j j j N *XV.p 7.l 6 X 5 j & & ; ; & ; - h O . . ",
"b.z.w.i.g.Q.R.0 : 5 O : : ; & & X > X &XAXcXm.j l > X j l 6 > 6 : : < < % X   . ",
"b.z.e.Q.Q./.p.X # ; 6 6 = . .   & X v zXAXAX6XX j 6 5 , > l 9 k 6 > 6 h > > # X ",
"i.i.n.Q.@X~.  X p p j : # X X . 5 X 8.MXAXAX3XX > - > > ; > 9 k 9 5 9 & X X X . ",
"e.w.g.p.~.t.X & 6 p : : X x 0.X X X N cXAXAX&XX > O . ; : > 9 9 9 9 X X ' g.' X ",
"q.q.e.w.e.V X & & & X # ) v T 3 ) X 8.bXAXAX-XX r.v X X . > 9 < - X r.-X7X-Xr.X ",
"n =.=.=.3.x   : & . . X ' ` X s.`.X V.VXAXZX-XX c   0 c # > - 0 2 ^.wX7X-X<Xg.X ",
"-.;.;.#.n h   # & # . # X c { d.I X &XAXAXVX7XX _ _ s.) = - D Z.G.iXdX6XiX0X$Xw.",
";.&.-.@.3.b   & & . # & & , N w.m.r.hXAXAXZXbX0.X ) c X O o F A.Z.eXiX<X%X$XB.V.",
"d g #.O.;.M < > & & : > # ' 6XBXZXZXVXZXAXAXVX^.m.V.0.X & o 2 K Z.U.tXyXwX7X%Xi.",
"i g O.g n k o o X     . X m.zXAXAXAXwX8XhXbX0X8.wXVXqXB O - A H A.F.eXmXhXiX&X_.",
"f o.g g %.%.5 l B V l c 9 &XVXAXZX&XX c j 5 5 X 3.dXiX8.X > K C.A.F.F.gXcX8X-X[.",
"d o.o.&.X.c.-X!.V.B.!.B.!.5XMXAXcXX > 9 X X X < X '.5X9.o 5 J J.J.P.F.).fXuX0X&X",
"d O.g %.+.t.<X8X>X[.[.[.!.yXMXNXiXc 9 9 j & # . 9 m.&X` X 3 J Z.S.D.G.F.rX0X<X1X",
"n %.%.#.+.L.U.:XyXyX<X[.[.tXfXfX3XX O X T v X & . X B.N.% 1 G I.,X,XI.F.eXfX-X&X",
"d 3.d s a E.U.A p.8XuX4XB.B.<X5X<X'.N.f.8.T z X X * !./.u.E C.).mXsXrXS.H.tX0X<X",
"d d s e 2.P.S.J.K.E M.[.!.i.0.!.'.!.g.0.l 0 I T c  .h.p.i.y.U.gXmXsXbXfXg.{ 4X5X",
"M k X q.tXP.Y.u.K A.A 8.p.z x T v : X X X ) s.u.u.y.t.8.t.E ).vXxXfXfXvXdXM.j.&X",
"r k X $XVXE.| / (  .R.E.G U I p 6 + & . I u.] D S C y.t.E E.gXNXmXfXpX9XpXfXf.`.",
"o M X 5XCX(.C.[ / _.s.P J.L.G D 1 5 3 3 I 5 2 2 2 C G 2.K eXfXNXVXmXfXpXaX3Xg.f.",
": k X iXCXeXC.E a.4.^ ^ _ K H S + 1 @ 2 + 2 D Y E E | /.eXjXjXjXvXVXkXdXkX3X7.c ",
"- X X sXCXtXw u.~ o 8 ! ^ W S 2 1 + + @ 5 1 Y s./.5XsXsXxXvXfXNXmXsXmXfX0XpX&XX ",
"j X 9 zXCXa.! [ 7 o X q L 8 8 w w 8 + @ @ 1 4 y.!.>XkXbXxXxXvXsXmXmXfXxXfXpX3X7.",
"< X c vXfX^ ( o o S S J J A : 7 7 7 7 7 . 5 C W.>X[.tXzXmXfXfXvXpXfXmXfXfXxX&X. ",
"& X 0 fXfX4.( ~ 7 F J F F Z 4 1 o % > 7 7 8 { 4X0X>XsXhXfXfXsXfXfXpXfXvXkXpXf.X ",
"> X X pXfX/ Q Q W 7 S 2 4 A F 1 o . o $ c L [.4X9X[.hXvXpX0XfXfX9X5X1XfXxX'.X 9 ",
"& % X &XfXpX1X_.( W w ) I _ L c 8 $ w _  .d.7X&XfX>XfXfX9XfX9XfXfX9X1XfX0Xa.X > ",
"o > X f.fXvXvX5XW.u. . . ._ _ _ _ _ } s.d.`.yX5XbXyX9XpXsXxXyXpXvXfXfXxX'.X 9 o ",
"o . X X 9XvXpX[.W.s.s.s. . . . . .d.W.].].<XkXhXsXfXsX5XsXfXyX5XpXxXVXvX0.X & X "
};
